HIERARCHY
ROOT Hips
{
	OFFSET 0.000000 0.000000 0.000000
	CHANNELS 6 Xposition Yposition Zposition Yrotation Xrotation Zrotation
	JOINT Chest
	{
		OFFSET 0.000000 -0.009281 11.569106
		CHANNELS 3 Yrotation Xrotation Zrotation
		JOINT Chest2
		{
			OFFSET -0.000000 0.016865 9.269641
			CHANNELS 3 Yrotation Xrotation Zrotation
			JOINT Chest3
			{
				OFFSET -0.000000 0.000001 8.374491
				CHANNELS 3 Yrotation Xrotation Zrotation
				JOINT Chest4
				{
					OFFSET -0.000000 0.000001 8.374493
					CHANNELS 3 Yrotation Xrotation Zrotation
					JOINT Neck
					{
						OFFSET -0.000000 0.000002 12.152554
						CHANNELS 3 Yrotation Xrotation Zrotation
						JOINT Head
						{
							OFFSET -0.000000 0.040101 7.802319
							CHANNELS 3 Yrotation Xrotation Zrotation
							End Site
							{
								OFFSET -0.000000 0.020947 14.853096
							}
						}
					}
					JOINT RightCollar
					{
						OFFSET 2.894404 0.000001 6.791374
						CHANNELS 3 Yrotation Xrotation Zrotation
						JOINT RightShoulder
						{
							OFFSET 13.574684 0.000001 0.000000
							CHANNELS 3 Yrotation Xrotation Zrotation
							JOINT RightElbow
							{
								OFFSET 23.923903 0.000002 0.000000
								CHANNELS 3 Yrotation Xrotation Zrotation
								JOINT RightWrist
								{
									OFFSET 19.846718 0.012767 0.000000
									CHANNELS 3 Yrotation Xrotation Zrotation
									End Site
									{
										OFFSET 14.973145 0.000001 0.000000
									}
								}
							}
						}
					}
					JOINT LeftCollar
					{
						OFFSET -2.894404 0.000001 6.791374
						CHANNELS 3 Yrotation Xrotation Zrotation
						JOINT LeftShoulder
						{
							OFFSET -13.574684 -0.000001 0.000000
							CHANNELS 3 Yrotation Xrotation Zrotation
							JOINT LeftElbow
							{
								OFFSET -23.923903 -0.000002 0.000000
								CHANNELS 3 Yrotation Xrotation Zrotation
								JOINT LeftWrist
								{
									OFFSET -19.846718 0.012763 0.000000
									CHANNELS 3 Yrotation Xrotation Zrotation
									End Site
									{
										OFFSET -14.973145 -0.000001 0.000000
									}
								}
							}
						}
					}
				}
			}
		}
	}
	JOINT RightHip
	{
		OFFSET 9.469263 0.004643 0.045487
		CHANNELS 3 Yrotation Xrotation Zrotation
		JOINT RightKnee
		{
			OFFSET 0.000000 0.002661 -40.478676
			CHANNELS 3 Yrotation Xrotation Zrotation
			JOINT RightAnkle
			{
				OFFSET 0.000000 0.049106 -35.224068
				CHANNELS 3 Yrotation Xrotation Zrotation
				JOINT RightToe
				{
					OFFSET -0.000001 12.539529 -6.151390
					CHANNELS 3 Yrotation Xrotation Zrotation
					End Site
					{
						OFFSET -0.000001 5.044994 -1.291870
					}
				}
			}
		}
	}
	JOINT LeftHip
	{
		OFFSET -9.469263 0.004641 0.045487
		CHANNELS 3 Yrotation Xrotation Zrotation
		JOINT LeftKnee
		{
			OFFSET 0.000000 0.002661 -40.478676
			CHANNELS 3 Yrotation Xrotation Zrotation
			JOINT LeftAnkle
			{
				OFFSET 0.000000 0.049106 -35.224068
				CHANNELS 3 Yrotation Xrotation Zrotation
				JOINT LeftToe
				{
					OFFSET -0.000001 12.539529 -6.151390
					CHANNELS 3 Yrotation Xrotation Zrotation
					End Site
					{
						OFFSET -0.000001 5.044994 -1.291870
					}
				}
			}
		}
	}
}
MOTION
Frames: 15
Frame Time: 0.016667
14.949330 -5.228933 83.305626 -5.355763 -0.776234 -111.846164 -1.249399 -6.091362 1.546419 -0.536663 -2.712344 0.669868 -0.536663 -2.712344 0.669867 -0.399448 -2.034851 0.499925 1.272824 -13.551074 -4.127205 0.748451 10.981925 -7.293633 10.565531 8.220508 -0.896164 43.351634 -17.604823 -13.067822 -28.749011 -61.475282 85.727555 -48.695557 44.373427 49.056789 -7.444516 6.399591 -5.713484 -42.103243 -13.005093 16.297414 -11.750792 -64.777644 -50.154096 36.316495 26.460423 -75.006556 -3.445767 -6.903111 -14.623082 4.362146 -6.060059 -19.143390 -1.744533 5.917128 -4.291821 0.009586 -0.023863 0.000321 1.250788 -7.294553 11.808991 0.186845 -3.090561 9.960436 0.033726 3.740603 10.098875 -0.046001 -0.039811 -0.000846 
14.963143 -5.253389 83.304115 -5.367178 -0.780652 -111.859033 -1.252927 -6.089701 1.544899 -0.538959 -2.710974 0.669808 -0.538959 -2.710974 0.669811 -0.401171 -2.033826 0.499877 1.270059 -13.533824 -4.122808 0.744108 11.013944 -7.287002 10.569602 8.231394 -0.898472 43.346669 -17.602548 -13.067933 -28.773702 -61.484762 85.746543 -48.694123 44.366928 49.057963 -7.446561 6.409208 -5.713438 -42.084938 -12.995747 16.307350 -11.765394 -64.793627 -50.155517 36.314692 26.456360 -75.008140 -3.439014 -6.925020 -14.599620 4.368922 -6.074943 -19.128047 -1.754296 5.942475 -4.320706 0.012484 -0.019575 0.002957 1.265518 -7.330940 11.795882 0.190937 -3.082946 9.981751 0.014051 3.756226 10.041105 -0.042603 -0.038912 -0.003778 
14.975950 -5.284019 83.302750 -5.378207 -0.788315 -111.871955 -1.256389 -6.091766 1.545439 -0.540849 -2.710918 0.670335 -0.540849 -2.710917 0.670337 -0.402586 -2.033786 0.500260 1.268140 -13.514058 -4.118199 0.741324 11.050671 -7.279710 10.573464 8.244755 -0.900286 43.356791 -17.616431 -13.067290 -28.761425 -61.477392 85.719878 -48.695550 44.367860 49.059620 -7.444612 6.408024 -5.721760 -42.083026 -12.990948 16.322731 -11.766714 -64.786182 -50.165871 36.312605 26.462750 -75.008803 -3.421743 -6.951373 -14.577792 4.379590 -6.081583 -19.095553 -1.774807 5.968968 -4.355696 0.013394 -0.017069 0.003154 1.273572 -7.365290 11.785670 0.195687 -3.074727 9.989933 0.001670 3.769386 10.052032 -0.037555 -0.037490 -0.003382 
14.984404 -5.311285 83.301903 -5.384722 -0.792325 -111.885138 -1.260631 -6.090370 1.546531 -0.542750 -2.710430 0.671174 -0.542750 -2.710430 0.671176 -0.404009 -2.033423 0.500879 1.263767 -13.496489 -4.114538 0.733630 11.083177 -7.275133 10.571255 8.228323 -0.907376 43.380338 -17.603583 -13.068256 -28.787304 -61.469899 85.721879 -48.699498 44.380011 49.059572 -7.445875 6.391789 -5.728076 -42.087824 -12.988236 16.338871 -11.765548 -64.763895 -50.178446 36.310563 26.459878 -75.019308 -3.409191 -6.969341 -14.532286 4.397725 -6.082246 -19.072115 -1.800061 5.986436 -4.453827 0.013216 -0.014085 0.004138 1.288815 -7.388098 11.764363 0.199672 -3.075145 9.995820 -0.016633 3.780803 10.083267 -0.034308 -0.035438 -0.005163 
14.982973 -5.343261 83.301369 -5.380607 -0.795664 -111.907773 -1.260199 -6.080954 1.548544 -0.544019 -2.706811 0.671600 -0.544019 -2.706811 0.671600 -0.404962 -2.030710 0.501194 1.256873 -13.482588 -4.107664 0.722649 11.108849 -7.265370 10.566651 8.213947 -0.905629 43.397246 -17.613752 -13.073178 -28.777838 -61.455044 85.699251 -48.698132 44.384048 49.058541 -7.454344 6.384343 -5.724134 -42.091601 -12.986316 16.362652 -11.745395 -64.755097 -50.199589 36.308090 26.467077 -75.027558 -3.390099 -6.967180 -14.451596 4.412912 -6.087414 -19.066929 -1.831610 6.000268 -4.478784 0.016289 -0.009063 0.008982 1.306923 -7.392642 11.741860 0.197108 -3.081117 10.016675 -0.027049 3.789637 10.135184 -0.032547 -0.033940 -0.006475 
14.975085 -5.379255 83.301590 -5.377749 -0.808783 -111.932717 -1.252254 -6.079765 1.554180 -0.545914 -2.705619 0.673793 -0.545914 -2.705619 0.673795 -0.406375 -2.029821 0.502836 1.251047 -13.464881 -4.107654 0.710738 11.141413 -7.268280 10.566499 8.215844 -0.903784 43.404971 -17.597815 -13.094984 -28.816186 -61.466286 85.730718 -48.688119 44.379035 49.068004 -7.465054 6.395244 -5.726480 -42.083090 -12.974818 16.392420 -11.710659 -64.767638 -50.233480 36.302978 26.470287 -75.032244 -3.358004 -6.962333 -14.352669 4.427928 -6.094004 -19.059761 -1.878410 6.016703 -4.538143 0.025827 -0.013070 0.018816 1.348958 -7.399297 11.731413 0.186335 -3.094052 10.044974 -0.046591 3.801086 10.202167 -0.029415 -0.037036 -0.009403 
14.960545 -5.414541 83.303513 -5.372988 -0.812089 -111.965228 -1.250811 -6.082124 1.559489 -0.548571 -2.707486 0.674212 -0.548571 -2.707487 0.674214 -0.408363 -2.031225 0.503132 1.244760 -13.436869 -4.106927 0.697709 11.193095 -7.270391 10.564106 8.215153 -0.900863 43.391676 -17.596656 -13.074098 -28.837462 -61.477358 85.755409 -48.694512 44.377692 49.060241 -7.475290 6.420756 -5.717385 -42.073634 -12.960943 16.414973 -11.701081 -64.779140 -50.246461 36.296042 26.466753 -75.037490 -3.332894 -6.936964 -14.222924 4.442279 -6.114139 -19.050670 -1.934995 6.014412 -4.636270 0.039785 -0.001607 0.027314 1.384286 -7.400245 11.735418 0.175221 -3.098690 10.072871 -0.073560 3.798395 10.195635 -0.022719 -0.033009 -0.012040 
14.936152 -5.452342 83.307144 -5.366072 -0.817109 -112.002767 -1.247325 -6.085948 1.568995 -0.551488 -2.711682 0.674142 -0.551488 -2.711682 0.674144 -0.410547 -2.034373 0.503064 1.238897 -13.403703 -4.107740 0.684595 11.254302 -7.275414 10.561226 8.224427 -0.901827 43.383401 -17.619492 -13.044966 -28.830232 -61.478731 85.749514 -48.709760 44.380028 49.046287 -7.474254 6.415133 -5.720791 -42.071821 -12.927921 16.421738 -11.697537 -64.776271 -50.253076 36.292610 26.456893 -75.048329 -3.300737 -6.903036 -14.052330 4.468461 -6.125448 -19.027394 -2.027570 5.995445 -4.792902 0.063323 0.013045 0.041958 1.419999 -7.397547 11.748001 0.169276 -3.093935 10.081197 -0.102608 3.782882 10.214393 -0.016104 -0.029025 -0.014317 
14.904466 -5.490859 83.312386 -5.353478 -0.824538 -112.041057 -1.237655 -6.087913 1.572561 -0.552385 -2.714221 0.672501 -0.552386 -2.714221 0.672502 -0.411223 -2.036280 0.501828 1.229185 -13.372294 -4.107720 0.664621 11.312084 -7.280366 10.552197 8.212755 -0.892830 43.387394 -17.629958 -13.013939 -28.803109 -61.469667 85.714366 -48.695714 44.374387 49.063267 -7.474683 6.419104 -5.710200 -42.079952 -12.933702 16.435769 -11.675307 -64.759414 -50.285895 36.294717 26.444042 -75.046929 -3.255296 -6.868183 -13.881048 4.486525 -6.114532 -18.970738 -2.139543 5.950845 -4.982381 0.092936 0.029392 0.057093 1.469260 -7.390065 11.756256 0.159930 -3.085173 10.059503 -0.130699 3.766415 10.209139 -0.013180 -0.029456 -0.019190 
14.863487 -5.537067 83.318916 -5.320955 -0.851866 -112.084613 -1.209315 -6.103407 1.572946 -0.552034 -2.722372 0.669348 -0.552034 -2.722372 0.669346 -0.410965 -2.042388 0.499458 1.219345 -13.328344 -4.104311 0.645112 11.393241 -7.279401 10.551859 8.263856 -0.869309 43.386304 -17.660808 -12.998598 -28.799219 -61.460952 85.706696 -48.696882 44.381907 49.065289 -7.478741 6.472747 -5.701752 -42.083186 -12.947257 16.457916 -11.641706 -64.750262 -50.324544 36.304675 26.441124 -75.032135 -3.178734 -6.830912 -13.702194 4.518285 -6.074727 -18.896041 -2.294712 5.893082 -5.246871 0.134882 0.035380 0.083718 1.552139 -7.361092 11.734375 0.144886 -3.089478 10.029364 -0.150490 3.759562 10.252120 -0.016208 -0.039411 -0.025402 
14.807619 -5.588394 83.327934 -5.276474 -0.875116 -112.126120 -1.182687 -6.110265 1.572561 -0.551900 -2.727182 0.666749 -0.551900 -2.727181 0.666756 -0.410870 -2.045993 0.497505 1.213666 -13.294240 -4.102443 0.633359 11.456299 -7.279338 10.565868 8.308814 -0.850447 43.363635 -17.674368 -12.988398 -28.813136 -61.461532 85.724810 -48.705102 44.394119 49.064616 -7.473931 6.508774 -5.699720 -42.085242 -12.934939 16.465035 -11.631835 -64.765677 -50.330380 36.305949 26.435875 -75.026671 -3.101656 -6.777587 -13.498605 4.571891 -6.019226 -18.824722 -2.500902 5.794674 -5.461480 0.192762 0.059869 0.115906 1.650096 -7.303461 11.638420 0.115757 -3.112280 9.990439 -0.156785 3.746507 10.377199 -0.027132 -0.044302 -0.035366 
14.735672 -5.638891 83.341125 -5.225606 -0.890760 -112.165332 -1.163353 -6.112491 1.573801 -0.554469 -2.731699 0.664061 -0.554469 -2.731699 0.664061 -0.412803 -2.049381 0.495470 1.216739 -13.267331 -4.100584 0.638539 11.506445 -7.275500 10.580948 8.341947 -0.840775 43.355579 -17.660199 -12.980277 -28.851388 -61.464046 85.752178 -48.701264 44.407380 49.069158 -7.463063 6.545054 -5.699805 -42.078897 -12.920902 16.463153 -11.644666 -64.793025 -50.316166 36.307766 26.430204 -75.027627 -3.015218 -6.698815 -13.243785 4.616337 -5.958644 -18.718198 -2.747133 5.660374 -5.742883 0.263010 0.088881 0.145229 1.739899 -7.223046 11.464536 0.083766 -3.132806 9.928806 -0.147009 3.707658 10.670409 -0.039949 -0.041452 -0.045600 
14.652618 -5.682076 83.358147 -5.176895 -0.900515 -112.196744 -1.149385 -6.109428 1.566497 -0.556932 -2.731400 0.660920 -0.556932 -2.731400 0.660918 -0.414665 -2.049158 0.493105 1.221139 -13.246845 -4.099684 0.646179 11.544709 -7.272702 10.586984 8.365827 -0.835652 43.372712 -17.659869 -12.981998 -28.855012 -61.450345 85.729898 -48.682993 44.409818 49.081408 -7.457294 6.552777 -5.702571 -42.073982 -12.924751 16.456673 -11.670559 -64.795218 -50.296372 36.321652 26.440782 -75.026725 -2.923762 -6.602199 -12.969109 4.632861 -5.911992 -18.662027 -2.971103 5.515553 -6.046937 0.320233 0.112616 0.167174 1.836500 -7.143579 11.247170 0.051602 -3.134616 9.831344 -0.144625 3.641973 10.907505 -0.051679 -0.031125 -0.057192 
14.566772 -5.731520 83.377670 -5.143477 -0.904513 -112.219393 -1.146891 -6.115974 1.548878 -0.558922 -2.729817 0.656988 -0.558922 -2.729818 0.656986 -0.416177 -2.047969 0.490149 1.225732 -13.233723 -4.096980 0.655299 11.569378 -7.266158 10.585919 8.377102 -0.831796 43.400757 -17.640886 -12.996504 -28.889562 -61.439314 85.740300 -48.671102 44.399904 49.081275 -7.454036 6.563560 -5.709548 -42.076817 -12.948778 16.473060 -11.664352 -64.781879 -50.304832 36.331538 26.459332 -75.026992 -2.842618 -6.524181 -12.713870 4.640373 -5.869183 -18.666048 -3.146647 5.388229 -6.214122 0.342416 0.127066 0.174588 1.901505 -7.076330 11.049863 0.043968 -3.115472 9.727368 -0.158252 3.536671 11.215700 -0.053262 -0.005105 -0.060598 
14.484217 -5.766509 83.398018 -5.113369 -0.894288 -112.239057 -1.159270 -6.118402 1.527018 -0.560392 -2.725466 0.652940 -0.560392 -2.725465 0.652940 -0.417303 -2.044702 0.487111 1.227229 -13.224488 -4.093422 0.659098 11.586712 -7.259120 10.594496 8.401795 -0.823549 43.411702 -17.646369 -13.010315 -28.893022 -61.427730 85.732726 -48.656447 44.386541 49.081726 -7.451508 6.579061 -5.703907 -42.076636 -12.981090 16.496353 -11.643922 -64.771920 -50.325783 36.334831 26.463817 -75.030359 -2.789195 -6.441567 -12.485389 4.653903 -5.838373 -18.689424 -3.275675 5.273940 -6.369562 0.330719 0.135276 0.169328 1.970220 -7.005823 10.877268 0.024741 -3.104713 9.611974 -0.166895 3.422949 11.372782 -0.066629 0.027651 -0.066337 
